# xmcd
# Track frame offsets:
# 150
# 14830
# 30577
# 41542
# 58087
# 72547
# 85005
# 98910
# 115882
# 130395
# 143332
# 155820
#
# Disc length: 2243 seconds
# Revision: 0
# Processed by: cddbd v1.4PL0 Copyright (c) Steve Scherf et al.
# Submitted via: VisiTrax 2.9.5.180 - For more info visit www.synapsa.com
#
DISCID=a608c10c
DTITLE=Michael Vraa - Hvis det er sådan du vil ha' det
DYEAR=1998
DGENRE=
TTITLE0=Gud, hvor er du dejlig
TTITLE1=Hvis det er sådan du vil ha' det
TTITLE2=Livet er alt for kort til tårer
TTITLE3=Midt på en eng
TTITLE4=København
TTITLE5=København
TTITLE6=Et sted på Østerbro
TTITLE7=Kærlighed
TTITLE8=På en bar
TTITLE9=En synkende skude
TTITLE10=Prøv blot at vær' lidt kærlig
TTITLE11=Det kan jeg li'
EXTD=
EXTT0=
EXTT1=
EXTT2=
EXTT3=
EXTT4=
EXTT5=
EXTT6=
EXTT7=
EXTT8=
EXTT9=
EXTT10=
EXTT11=
PLAYORDER=
